<svg version="1.1" id="Layer_1" xmlns="http://www.w3.org/2000/svg" xmlns:xlink="http://www.w3.org/1999/xlink" x="0px" y="0px"
	 width="100%" viewBox="0 0 200 200" enable-background="new 0 0 200 200" xml:space="preserve">
<path fill="#FFFEFE" opacity="1.000000" stroke="none" 
	d="
M201.000000,84.000000 
	C201.000000,123.309052 201.000000,162.118103 201.000000,200.963577 
	C134.399307,200.963577 67.798607,200.963577 1.098946,200.963577 
	C1.098946,134.441116 1.098946,67.882027 1.098946,1.161472 
	C67.666351,1.161472 134.333145,1.161472 201.000000,1.161472 
	C201.000000,28.534462 201.000000,56.017231 201.000000,84.000000 
M59.033379,150.586533 
	C59.302868,150.779526 59.572361,150.972519 60.080627,151.788956 
	C63.345310,154.899796 66.609993,158.010635 70.058075,161.600754 
	C70.357315,161.749603 70.656555,161.898453 71.170540,162.569992 
	C71.647095,162.861694 72.123642,163.153412 72.894547,163.950821 
	C73.541595,164.357483 74.188644,164.764130 75.036873,165.646683 
	C75.342697,165.781342 75.648514,165.916000 76.248230,166.591385 
	C77.123886,167.105606 77.999535,167.619843 79.168167,168.684860 
	C80.066605,169.175034 80.965034,169.665207 82.194672,170.684830 
	C83.117569,171.137009 84.040466,171.589172 85.265701,172.540970 
	C85.801987,172.742966 86.338280,172.944962 87.251770,173.715652 
	C90.471054,175.178436 93.690346,176.641235 97.364586,178.631760 
	C99.940994,178.459488 102.517403,178.287231 105.828613,178.067444 
	C109.566513,176.059509 113.304413,174.051575 117.657181,171.942535 
	C118.480675,171.340454 119.304169,170.738358 120.742798,170.039734 
	C121.536728,169.403534 122.330666,168.767319 123.725426,167.988708 
	C124.495575,167.338959 125.265724,166.689209 126.548851,165.959900 
	C126.749252,165.691849 126.949654,165.423798 127.731178,165.027954 
	C128.307129,164.498871 128.883087,163.969788 129.881760,163.300461 
	C130.150024,163.153046 130.357483,162.945007 130.992050,162.373993 
	C131.371948,161.962173 131.751862,161.550369 132.764832,160.919998 
	C135.898895,157.671570 139.032974,154.423126 142.645126,150.988632 
	C142.799454,150.693146 142.953781,150.397659 143.589600,149.924301 
	C143.738937,149.627838 143.888260,149.331360 144.603546,148.743317 
	C145.445511,147.535706 146.287460,146.328094 147.702255,144.831604 
	C148.490585,143.576172 149.278915,142.320724 150.614380,140.705536 
	C151.459885,139.181671 152.305405,137.657791 153.690231,135.752151 
	C154.471222,134.178711 155.252197,132.605270 156.539062,130.565598 
	C159.384186,122.957298 162.986115,115.536636 164.928024,107.704407 
	C170.099411,86.846977 170.172287,65.475746 170.177582,44.122967 
	C170.178543,40.252724 168.826965,38.650433 165.280487,37.519634 
	C148.670853,32.223644 131.656097,29.355619 114.284233,28.538752 
	C87.806038,27.293684 61.706947,29.320925 36.341888,37.716728 
	C33.269547,38.733669 31.687504,39.999477 31.877819,43.573879 
	C32.727528,59.532631 32.848038,75.544884 34.177208,91.458870 
	C35.272167,104.568710 38.233990,117.410782 44.972282,129.624695 
	C45.301941,130.094727 45.631599,130.564774 46.014324,131.703842 
	C46.958469,133.179993 47.902618,134.656143 48.946827,136.789246 
	C49.951698,138.205414 50.956570,139.621582 52.084972,141.668259 
	C53.015556,142.817444 53.946144,143.966629 55.035645,145.734131 
	C56.013401,146.832321 56.991154,147.930511 58.071060,149.535568 
	C58.349670,149.720032 58.628281,149.904495 59.033379,150.586533 
z"/>
<path fill="#DD1F20" opacity="1.000000" stroke="none" 
	d="
M44.956291,129.036652 
	C38.233990,117.410782 35.272167,104.568710 34.177208,91.458870 
	C32.848038,75.544884 32.727528,59.532631 31.877819,43.573879 
	C31.687504,39.999477 33.269547,38.733669 36.341888,37.716728 
	C61.706947,29.320925 87.806038,27.293684 114.284233,28.538752 
	C131.656097,29.355619 148.670853,32.223644 165.280487,37.519634 
	C168.826965,38.650433 170.178543,40.252724 170.177582,44.122967 
	C170.172287,65.475746 170.099411,86.846977 164.928024,107.704407 
	C162.986115,115.536636 159.384186,122.957298 156.197571,130.716370 
	C155.856079,130.867126 155.678787,130.702637 155.781860,130.351822 
	C158.552780,122.553719 162.168518,115.291367 163.665970,107.615738 
	C165.902939,96.149529 167.046967,84.421417 167.899017,72.749466 
	C168.552368,63.799465 167.687836,54.745090 168.177399,45.774189 
	C168.451965,40.743164 165.943588,38.951870 161.947739,37.997391 
	C155.373993,36.427128 148.813477,34.708290 142.155701,33.605824 
	C133.200821,32.122978 124.187897,30.523056 115.148315,30.114569 
	C95.053009,29.206484 74.954056,29.734194 55.196712,34.086338 
	C48.807701,35.493706 42.581520,37.695415 36.369095,39.794872 
	C35.336693,40.143764 34.061779,41.845943 34.075600,42.907436 
	C34.265999,57.532669 34.169132,72.190056 35.198086,86.765045 
	C35.793327,95.196556 38.044342,103.550980 40.004101,111.832687 
	C41.365307,117.584999 43.499233,123.154442 45.204693,128.862885 
	C45.121456,128.920181 44.956291,129.036652 44.956291,129.036652 
z"/>
<path fill="#DD1F20" opacity="1.000000" stroke="none" 
	d="
M142.167038,151.174698 
	C139.032974,154.423126 135.898895,157.671570 132.354507,160.932556 
	C131.944183,160.945114 131.756012,160.752258 131.883301,160.446381 
	C135.277832,157.016251 138.545074,153.891998 141.899200,150.871063 
	C141.986069,150.974365 142.167038,151.174698 142.167038,151.174698 
z"/>
<path fill="#DD1F20" opacity="1.000000" stroke="none" 
	d="
M69.874680,161.121475 
	C66.609993,158.010635 63.345310,154.899796 60.049080,151.380447 
	C60.017536,150.971939 60.186588,150.772552 60.501869,150.888458 
	C63.964035,154.266251 67.110916,157.528107 70.160339,160.870911 
	C70.062889,160.951843 69.874680,161.121475 69.874680,161.121475 
z"/>
<path fill="#DD1F20" opacity="1.000000" stroke="none" 
	d="
M117.042305,172.043625 
	C113.304413,174.051575 109.566513,176.059509 105.389275,177.995697 
	C104.949936,177.923935 104.807533,177.731796 105.041824,177.489761 
	C109.083260,175.390518 112.890404,173.533295 116.783669,171.768036 
	C116.869789,171.860001 117.042305,172.043625 117.042305,172.043625 
z"/>
<path fill="#DD1F20" opacity="1.000000" stroke="none" 
	d="
M96.909630,178.104019 
	C93.690346,176.641235 90.471054,175.178436 87.142746,173.329193 
	C87.033714,172.942749 87.187538,172.734528 87.545242,172.814301 
	C91.024467,174.499039 94.145981,176.104004 97.177872,177.807587 
	C97.088264,177.906219 96.909630,178.104019 96.909630,178.104019 
z"/>
<path fill="#DD1F20" opacity="1.000000" stroke="none" 
	d="
M105.021873,178.019455 
	C102.517403,178.287231 99.940994,178.459488 97.137108,178.367889 
	C96.909630,178.104019 97.088264,177.906219 97.584511,177.897583 
	C100.323013,177.836563 102.565277,177.784180 104.807533,177.731796 
	C104.807533,177.731796 104.949936,177.923935 105.021873,178.019455 
z"/>
<path fill="#DD1F20" opacity="1.000000" stroke="none" 
	d="
M48.846767,136.132294 
	C47.902618,134.656143 46.958469,133.179993 46.074844,131.286804 
	C46.135368,130.869781 46.309082,130.704330 46.600639,130.869324 
	C47.676762,132.629120 48.461330,134.223938 49.145691,135.896606 
	C49.045483,135.974442 48.846767,136.132294 48.846767,136.132294 
z"/>
<path fill="#DD1F20" opacity="1.000000" stroke="none" 
	d="
M51.961441,141.037750 
	C50.956570,139.621582 49.951698,138.205414 48.896797,136.460770 
	C48.846767,136.132294 49.045483,135.974442 49.386810,136.119476 
	C50.594368,137.738907 51.460602,139.213303 52.235451,140.775177 
	C52.144066,140.862656 51.961437,141.037750 51.961441,141.037750 
z"/>
<path fill="#DD1F20" opacity="1.000000" stroke="none" 
	d="
M57.968910,149.028702 
	C56.991154,147.930511 56.013401,146.832321 55.054863,145.331329 
	C55.074078,144.928513 55.271240,144.740982 55.574829,144.877914 
	C56.689720,146.263916 57.501030,147.512985 58.225967,148.828064 
	C58.139599,148.894058 57.968910,149.028702 57.968910,149.028702 
z"/>
<path fill="#DD1F20" opacity="1.000000" stroke="none" 
	d="
M155.944626,130.949463 
	C155.252197,132.605270 154.471222,134.178711 153.323822,135.863098 
	C152.957428,135.974060 152.762436,135.816101 152.868576,135.489075 
	C153.876068,133.675583 154.777435,132.189117 155.678787,130.702637 
	C155.678787,130.702637 155.856079,130.867126 155.944626,130.949463 
z"/>
<path fill="#DD1F20" opacity="1.000000" stroke="none" 
	d="
M153.054169,136.053986 
	C152.305405,137.657791 151.459885,139.181671 150.251526,140.800735 
	C149.888672,140.895935 149.709869,140.726822 149.803055,140.410828 
	C150.851639,138.668579 151.807037,137.242340 152.762436,135.816101 
	C152.762436,135.816101 152.957428,135.974060 153.054169,136.053986 
z"/>
<path fill="#DD1F20" opacity="1.000000" stroke="none" 
	d="
M54.975403,145.022156 
	C53.946144,143.966629 53.015556,142.817444 52.023205,141.352997 
	C51.961437,141.037750 52.144066,140.862656 52.532158,140.922150 
	C53.703911,142.234756 54.487576,143.487869 55.271240,144.740982 
	C55.271240,144.740982 55.074078,144.928513 54.975403,145.022156 
z"/>
<path fill="#DD1F20" opacity="1.000000" stroke="none" 
	d="
M147.129410,145.120468 
	C146.287460,146.328094 145.445511,147.535706 144.238602,148.822083 
	C143.873657,148.900833 143.707657,148.769363 143.827835,148.462524 
	C144.878891,147.019516 145.809769,145.883347 146.837692,144.840652 
	C146.934738,144.934128 147.129410,145.120468 147.129410,145.120468 
z"/>
<path fill="#DD1F20" opacity="1.000000" stroke="none" 
	d="
M149.977966,140.980621 
	C149.278915,142.320724 148.490585,143.576172 147.415833,144.976044 
	C147.129410,145.120468 146.934738,144.934128 146.953796,144.537201 
	C147.885208,143.002457 148.797546,141.864639 149.709869,140.726822 
	C149.709869,140.726822 149.888672,140.895935 149.977966,140.980621 
z"/>
<path fill="#DD1F20" opacity="1.000000" stroke="none" 
	d="
M120.127663,170.136276 
	C119.304169,170.738358 118.480675,171.340454 117.349747,171.993073 
	C117.042305,172.043625 116.869789,171.860001 116.939301,171.489868 
	C117.922318,170.657761 118.835823,170.195755 119.843941,169.834351 
	C119.938553,169.934952 120.127663,170.136276 120.127663,170.136276 
z"/>
<path fill="#DD1F20" opacity="1.000000" stroke="none" 
	d="
M84.963364,172.041336 
	C84.040466,171.589172 83.117569,171.137009 82.107712,170.323776 
	C82.020752,169.962723 82.174408,169.767136 82.494186,169.840424 
	C83.643044,170.505035 84.472115,171.096390 85.216537,171.775940 
	C85.131897,171.864166 84.963364,172.041336 84.963364,172.041336 
z"/>
<path fill="#DD1F20" opacity="1.000000" stroke="none" 
	d="
M123.124603,168.131104 
	C122.330666,168.767319 121.536728,169.403534 120.435226,170.088013 
	C120.127663,170.136276 119.938553,169.934952 119.986992,169.549133 
	C120.936180,168.683472 121.836922,168.203644 122.834396,167.825623 
	C122.931129,167.927460 123.124596,168.131104 123.124603,168.131104 
z"/>
<path fill="#DD1F20" opacity="1.000000" stroke="none" 
	d="
M126.035873,166.039474 
	C125.265724,166.689209 124.495575,167.338959 123.425011,168.059906 
	C123.124596,168.131104 122.931129,167.927460 122.978355,167.537903 
	C123.937088,166.658600 124.848602,166.168839 125.828262,165.769791 
	C125.896400,165.860504 126.035873,166.039474 126.035873,166.039474 
z"/>
<path fill="#DD1F20" opacity="1.000000" stroke="none" 
	d="
M78.875183,168.134064 
	C77.999535,167.619843 77.123886,167.105606 76.169579,166.234116 
	C76.090927,165.876846 76.224075,165.700363 76.539452,165.788788 
	C77.652016,166.501022 78.449196,167.124863 79.153320,167.844788 
	C79.060257,167.940857 78.875183,168.134064 78.875183,168.134064 
z"/>
<path fill="#DD1F20" opacity="1.000000" stroke="none" 
	d="
M81.942108,170.059052 
	C80.965034,169.665207 80.066605,169.175034 79.021675,168.409454 
	C78.875183,168.134064 79.060257,167.940857 79.432739,167.953033 
	C80.594948,168.565842 81.384682,169.166489 82.174408,169.767136 
	C82.174408,169.767136 82.020752,169.962723 81.942108,170.059052 
z"/>
<path fill="#DD1F20" opacity="1.000000" stroke="none" 
	d="
M74.835693,165.170776 
	C74.188644,164.764130 73.541595,164.357483 72.868294,163.563232 
	C72.842041,163.175659 73.087418,162.909393 73.331161,163.057098 
	C74.108437,163.743073 74.641968,164.281357 75.090424,164.907303 
	C75.005363,164.994980 74.835693,165.170776 74.835693,165.170776 
z"/>
<path fill="#DD1F20" opacity="1.000000" stroke="none" 
	d="
M129.459030,163.440704 
	C128.883087,163.969788 128.307129,164.498871 127.354988,165.002609 
	C126.978798,164.977264 126.808556,164.797821 126.988220,164.576752 
	C127.751740,163.876862 128.335587,163.398056 129.053635,163.050323 
	C129.187820,163.181427 129.459030,163.440704 129.459030,163.440704 
z"/>
<path fill="#DD1F20" opacity="1.000000" stroke="none" 
	d="
M46.048313,130.952301 
	C45.631599,130.564774 45.301941,130.094727 44.964287,129.330673 
	C44.956291,129.036652 45.121456,128.920181 45.373474,129.075989 
	C45.853355,129.722656 46.081219,130.213486 46.309082,130.704330 
	C46.309082,130.704330 46.135368,130.869781 46.048313,130.952301 
z"/>
<path fill="#DD1F20" opacity="1.000000" stroke="none" 
	d="
M86.954147,173.044861 
	C86.338280,172.944962 85.801987,172.742966 85.114532,172.291153 
	C84.963364,172.041336 85.131897,171.864166 85.466583,171.879761 
	C86.263359,172.175095 86.725449,172.454803 87.187538,172.734528 
	C87.187538,172.734528 87.033714,172.942749 86.954147,173.044861 
z"/>
<path fill="#DD1F20" opacity="1.000000" stroke="none" 
	d="
M72.721115,163.310394 
	C72.123642,163.153412 71.647095,162.861694 71.132149,162.225113 
	C71.093758,161.880234 71.228424,161.710480 71.492096,161.811890 
	C72.199654,162.245316 72.643532,162.577362 73.087418,162.909393 
	C73.087418,162.909393 72.842041,163.175659 72.721115,163.310394 
z"/>
<path fill="#DD1F20" opacity="1.000000" stroke="none" 
	d="
M132.037979,161.041840 
	C131.751862,161.550369 131.371948,161.962173 130.619263,162.338898 
	C130.246490,162.303818 129.958389,161.954300 130.118378,161.725677 
	C130.770905,161.248795 131.263458,161.000519 131.756012,160.752258 
	C131.756012,160.752258 131.944183,160.945114 132.037979,161.041840 
z"/>
<path fill="#DD1F20" opacity="1.000000" stroke="none" 
	d="
M127.064430,165.066498 
	C126.949654,165.423798 126.749252,165.691849 126.292358,165.999695 
	C126.035873,166.039474 125.896400,165.860504 125.993164,165.611954 
	C126.311279,165.151764 126.550819,164.963242 126.808556,164.797821 
	C126.808556,164.797821 126.978798,164.977264 127.064430,165.066498 
z"/>
<path fill="#DD1F20" opacity="1.000000" stroke="none" 
	d="
M76.022629,165.963760 
	C75.648514,165.916000 75.342697,165.781342 74.936279,165.408722 
	C74.835693,165.170776 75.005363,164.994980 75.276505,165.040161 
	C75.786423,165.275726 76.011902,165.480728 76.224075,165.700363 
	C76.224075,165.700363 76.090927,165.876846 76.022629,165.963760 
z"/>
<path fill="#DD1F20" opacity="1.000000" stroke="none" 
	d="
M130.375336,162.490082 
	C130.357483,162.945007 130.150024,163.153046 129.670395,163.370575 
	C129.459030,163.440704 129.187820,163.181427 129.187820,162.850540 
	C129.396683,162.265808 129.653534,162.077347 129.958389,161.954300 
	C129.958389,161.954300 130.246490,162.303818 130.375336,162.490082 
z"/>
<path fill="#DD1F20" opacity="1.000000" stroke="none" 
	d="
M71.024780,161.963776 
	C70.656555,161.898453 70.357315,161.749603 69.966377,161.361115 
	C69.874680,161.121475 70.062889,160.951843 70.330467,161.014923 
	C70.820045,161.277008 71.030174,161.487823 71.228424,161.710480 
	C71.228424,161.710480 71.093758,161.880234 71.024780,161.963776 
z"/>
<path fill="#DD1F20" opacity="1.000000" stroke="none" 
	d="
M143.108109,150.102158 
	C142.953781,150.397659 142.799454,150.693146 142.406082,151.081665 
	C142.167038,151.174698 141.986069,150.974365 142.051132,150.697906 
	C142.324539,150.193466 142.552185,149.986710 142.875961,149.876877 
	C142.952789,149.952545 143.108109,150.102158 143.108109,150.102158 
z"/>
<path fill="#DD1F20" opacity="1.000000" stroke="none" 
	d="
M59.929695,151.068726 
	C59.572361,150.972519 59.302868,150.779526 59.047127,150.263245 
	C59.060879,149.939941 59.214245,149.790268 59.390079,149.940094 
	C59.788193,150.303452 59.995083,150.531006 60.186588,150.772552 
	C60.186588,150.772552 60.017536,150.971939 59.929695,151.068726 
z"/>
<path fill="#DD1F20" opacity="1.000000" stroke="none" 
	d="
M143.955627,148.967865 
	C143.888260,149.331360 143.738937,149.627838 143.348846,150.013229 
	C143.108109,150.102158 142.952789,149.952545 143.011292,149.691284 
	C143.265259,149.193237 143.477875,148.973007 143.707657,148.769363 
	C143.707657,148.769363 143.873657,148.900833 143.955627,148.967865 
z"/>
<path fill="#DD1F20" opacity="1.000000" stroke="none" 
	d="
M58.983887,150.014465 
	C58.628281,149.904495 58.349670,149.720032 58.019985,149.282135 
	C57.968910,149.028702 58.139599,148.894058 58.388695,148.987839 
	C58.855583,149.296982 59.047733,149.533203 59.214245,149.790268 
	C59.214245,149.790268 59.060879,149.939941 58.983887,150.014465 
z"/>
<path fill="#FB0302" opacity="1.000000" stroke="none" 
	d="
M59.390079,149.940094 
	C59.047733,149.533203 58.855583,149.296982 58.475060,148.921844 
	C57.501030,147.512985 56.689720,146.263916 55.574829,144.877914 
	C54.487576,143.487869 53.703911,142.234756 52.623543,140.834686 
	C51.460602,139.213303 50.594368,137.738907 49.487015,136.041626 
	C48.461330,134.223938 47.676762,132.629120 46.600639,130.869324 
	C46.081219,130.213486 45.853355,129.722656 45.456711,129.018707 
	C43.499233,123.154442 41.365307,117.584999 40.004101,111.832687 
	C38.044342,103.550980 35.793327,95.196556 35.198086,86.765045 
	C34.169132,72.190056 34.265999,57.532669 34.075600,42.907436 
	C34.061779,41.845943 35.336693,40.143764 36.369095,39.794872 
	C42.581520,37.695415 48.807701,35.493706 55.196712,34.086338 
	C74.954056,29.734194 95.053009,29.206484 115.148315,30.114569 
	C124.187897,30.523056 133.200821,32.122978 142.155701,33.605824 
	C148.813477,34.708290 155.373993,36.427128 161.947739,37.997391 
	C165.943588,38.951870 168.451965,40.743164 168.177399,45.774189 
	C167.687836,54.745090 168.552368,63.799465 167.899017,72.749466 
	C167.046967,84.421417 165.902939,96.149529 163.665970,107.615738 
	C162.168518,115.291367 158.552780,122.553719 155.781860,130.351822 
	C154.777435,132.189117 153.876068,133.675583 152.868576,135.489075 
	C151.807037,137.242340 150.851639,138.668579 149.803055,140.410828 
	C148.797546,141.864639 147.885208,143.002457 146.856750,144.443726 
	C145.809769,145.883347 144.878891,147.019516 143.827835,148.462524 
	C143.477875,148.973007 143.265259,149.193237 142.934479,149.615631 
	C142.552185,149.986710 142.324539,150.193466 141.964264,150.594604 
	C138.545074,153.891998 135.277832,157.016251 131.883301,160.446381 
	C131.263458,161.000519 130.770905,161.248795 130.118378,161.725677 
	C129.653534,162.077347 129.396683,162.265808 129.053635,162.719452 
	C128.335587,163.398056 127.751740,163.876862 126.988220,164.576752 
	C126.550819,164.963242 126.311279,165.151764 125.925026,165.521240 
	C124.848602,166.168839 123.937088,166.658600 122.881622,167.436081 
	C121.836922,168.203644 120.936180,168.683472 119.892380,169.448517 
	C118.835823,170.195755 117.922318,170.657761 116.853180,171.397919 
	C112.890404,173.533295 109.083260,175.390518 105.041824,177.489761 
	C102.565277,177.784180 100.323013,177.836563 97.674118,177.798965 
	C94.145981,176.104004 91.024467,174.499039 87.545242,172.814301 
	C86.725449,172.454803 86.263359,172.175095 85.551224,171.791550 
	C84.472115,171.096390 83.643044,170.505035 82.494186,169.840424 
	C81.384682,169.166489 80.594948,168.565842 79.525803,167.856964 
	C78.449196,167.124863 77.652016,166.501022 76.539452,165.788788 
	C76.011902,165.480728 75.786423,165.275726 75.361565,164.952484 
	C74.641968,164.281357 74.108437,163.743073 73.331161,163.057098 
	C72.643532,162.577362 72.199654,162.245316 71.492096,161.811890 
	C71.030174,161.487823 70.820045,161.277008 70.427917,160.933990 
	C67.110916,157.528107 63.964035,154.266251 60.501869,150.888458 
	C59.995083,150.531006 59.788193,150.303452 59.390079,149.940094 
M87.018784,110.894531 
	C87.018784,120.827271 87.018784,130.760010 87.018784,140.765564 
	C96.572365,140.765564 105.472595,140.765564 114.916321,140.765564 
	C114.916321,130.228302 114.916321,119.993599 114.916321,109.274574 
	C125.709389,109.274574 135.966278,109.274574 146.451874,109.274574 
	C146.451874,99.913651 146.451874,91.057152 146.451874,81.812973 
	C135.776794,81.812973 125.509048,81.812973 114.762108,81.812973 
	C114.762108,71.183670 114.762108,60.935661 114.762108,50.440804 
	C105.378235,50.440804 96.486053,50.440804 86.924179,50.440804 
	C86.924179,61.056793 86.924179,71.422577 86.924179,82.170227 
	C75.999016,82.170227 65.740143,82.170227 55.333176,82.170227 
	C55.333176,91.317795 55.333176,100.054253 55.333176,109.295853 
	C59.390423,109.295853 63.184471,109.215576 66.973900,109.313622 
	C73.574173,109.484413 80.171608,109.765152 87.018784,110.894531 
z"/>
<path fill="#FEFAFA" opacity="1.000000" stroke="none" 
	d="
M86.894508,110.447166 
	C80.171608,109.765152 73.574173,109.484413 66.973900,109.313622 
	C63.184471,109.215576 59.390423,109.295853 55.333176,109.295853 
	C55.333176,100.054253 55.333176,91.317795 55.333176,82.170227 
	C65.740143,82.170227 75.999016,82.170227 86.924179,82.170227 
	C86.924179,71.422577 86.924179,61.056793 86.924179,50.440804 
	C96.486053,50.440804 105.378235,50.440804 114.762108,50.440804 
	C114.762108,60.935661 114.762108,71.183670 114.762108,81.812973 
	C125.509048,81.812973 135.776794,81.812973 146.451874,81.812973 
	C146.451874,91.057152 146.451874,99.913651 146.451874,109.274574 
	C135.966278,109.274574 125.709389,109.274574 114.916321,109.274574 
	C114.916321,119.993599 114.916321,130.228302 114.916321,140.765564 
	C105.472595,140.765564 96.572365,140.765564 87.018784,140.765564 
	C87.018784,130.760010 87.018784,120.827271 86.894508,110.447166 
z"/>
</svg>