<svg width="576" height="176" viewBox="192 392 576 176" fill="none" xmlns="http://www.w3.org/2000/svg">
<g clip-path="url(#clip0_1_2109)">
<path d="M478 437.2C475 433.4 471 430.6 465.8 428.8C460.6 427 455.8 426 451.2 426C448.6 426 445.8 426.4 443 427C440.2 427.6 437.4 428.6 435 430C432.4 431.4 430.4 433.2 428.8 435.4C427.2 437.6 426.4 440.2 426.4 443.4C426.4 448.4 428.2 452.4 432 455C435.8 457.6 440.6 460 446.4 461.8C452.2 463.6 458.4 465.6 465 467.4C471.6 469.2 477.8 472 483.6 475.4C489.4 478.8 494.2 483.6 498 489.4C501.8 495.2 503.6 503 503.6 512.8C503.6 522.2 501.8 530.2 498.4 537.2C495 544.2 490.2 549.8 484.4 554.4C478.4 559 471.6 562.4 463.8 564.6C456 566.8 447.8 568 439 568C428.2 568 418 566.4 408.8 563C399.4 559.6 390.8 554.4 382.8 547L409 518C412.8 523 417.6 527 423.4 529.8C429.2 532.6 435.2 534 441.2 534C444.2 534 447.2 533.6 450.4 533C453.4 532.2 456.2 531.2 458.6 529.8C461 528.4 463 526.6 464.6 524.4C466 522.2 466.8 519.6 466.8 516.6C466.8 511.6 464.8 507.6 461 504.6C457.2 501.6 452.2 499.2 446.4 497.2C440.6 495.2 434.2 493.2 427.4 491C420.6 489 414.4 486.2 408.4 482.8C402.6 479.4 397.8 474.8 393.8 469C390 463.4 388 455.8 388 446.6C388 437.6 389.8 429.8 393.4 423C397 416.2 401.6 410.6 407.6 406C413.6 401.4 420.4 398 428 395.8C435.6 393.6 443.8 392 452 392C461.4 392 470.6 393.4 479.4 396C488.2 398.6 496.2 403.2 503.2 409.4L478 437.2ZM566.2 396.2H603V563.6H566.2V396.2ZM768 396.2H686.2V422.2H731V507C731 526.6 723.8 535 713.6 535C704.2 535 695 528.6 692.4 502.4L657.2 506.4C662.6 562 693.2 568 714.4 568C751.2 568 768 546.6 768 516V396.2ZM305.4 563.8H347.8L294.6 396.4V396.2H245.2L192 563.8H234.4L242 536H298L305.4 563.8ZM251.2 502.8L270.4 433.2L289 502.8H251.2Z" fill="#FDBE15"/>
</g>
<defs>
<clipPath id="clip0_1_2109">
<rect width="576" height="176" fill="white" transform="translate(192 392)"/>
</clipPath>
</defs>
</svg>
