<svg version="1.1" id="Layer_1" xmlns="http://www.w3.org/2000/svg" xmlns:xlink="http://www.w3.org/1999/xlink" x="0px" y="0px"
	 width="100%" viewBox="200 200 1600 1600" enable-background="new 0 0 2000 2000" xml:space="preserve">
<path fill="#FFFFFF" opacity="1.000000" stroke="none"
	d="
M2001.000000,6.000000
	C2001.000000,8.041667 2001.000000,10.083333 2000.576416,12.561390
	C1994.781494,13.227775 1997.091919,17.391100 1997.091553,19.752291
	C1996.987549,673.535034 1996.990112,1327.317749 1996.990112,1981.100464
	C1996.990112,1982.100464 1997.090088,1983.112183 1996.972656,1984.098145
	C1996.602051,1987.209961 1998.002563,1988.407837 2001.000000,1988.000000
	C2001.000000,1990.370605 2001.000000,1992.741089 2000.573730,1995.552734
	C1980.394531,1996.328125 1960.641846,1996.949951 1940.889038,1996.953735
	C1623.451416,1997.014526 1306.013672,1997.126221 988.576111,1996.960938
	C659.384033,1996.789429 330.192047,1996.332153 1.000000,1996.000000
	C1.000000,1993.958374 1.000000,1991.916626 1.423298,1989.436035
	C7.216738,1988.767090 4.908403,1984.604858 4.908779,1982.243042
	C5.012614,1328.131226 5.010026,674.019348 5.009977,19.907497
	C5.009977,18.907581 4.908614,17.895504 5.027615,16.910000
	C5.404068,13.792394 3.984550,12.611663 1.000000,13.000000
	C1.000000,10.958333 1.000000,8.916667 1.426320,6.440425
	C21.439064,5.671747 41.025436,5.049792 60.611919,5.046359
	C399.711700,4.986915 738.811523,4.874464 1077.911255,5.041697
	C1385.607666,5.193443 1693.303711,5.667847 2001.000000,6.000000
M1512.354858,751.948730
	C1511.857422,752.278137 1511.360107,752.607483 1510.309082,752.996887
	C1509.865967,753.301697 1509.422974,753.606506 1508.360352,753.956970
	C1507.859863,754.282471 1507.359375,754.608032 1506.152588,755.022278
	C1464.815186,775.565796 1423.462769,796.079102 1382.149414,816.670959
	C1369.373169,823.039001 1356.703369,829.620361 1343.336670,836.116943
	C1342.240723,836.752625 1341.144897,837.388306 1340.012329,837.991882
	C1340.012329,837.991882 1340.016113,838.040344 1339.405151,838.045715
	C1338.905029,838.372620 1338.404907,838.699524 1337.346069,839.628906
	C1337.500610,844.744324 1337.655151,849.859680 1337.917480,855.890015
	C1337.882324,859.268250 1337.847168,862.646484 1337.301270,866.665833
	C1337.200317,867.484131 1337.011108,868.302368 1337.010864,869.120667
	C1336.996216,936.328186 1336.990845,1003.535767 1337.031982,1070.743286
	C1337.032837,1072.156250 1337.584229,1073.568970 1338.017212,1075.656982
	C1339.598022,1075.417114 1341.178833,1075.177246 1343.468872,1074.790161
	C1356.054688,1068.375000 1368.639526,1061.957886 1381.226685,1055.545288
	C1412.341675,1039.693481 1443.471680,1023.870850 1474.567139,1007.980957
	C1488.755127,1000.730896 1502.875977,993.349304 1517.592407,985.903809
	C1517.878418,985.651917 1518.164551,985.400085 1518.747314,985.188843
	C1518.747314,985.188843 1518.991089,985.015381 1519.544556,984.892273
	C1519.755371,984.584778 1519.966064,984.277283 1520.696167,983.335510
	C1520.799072,982.351196 1520.991943,981.366882 1520.992065,980.382568
	C1521.006104,904.681458 1521.009644,828.980408 1520.968018,753.279297
	C1520.967285,751.868713 1520.416138,750.458374 1519.703735,748.648560
	C1518.115479,749.418274 1516.527344,750.187927 1514.994019,750.996216
	C1514.994019,750.996216 1514.980469,750.930603 1514.374390,750.968994
	C1513.893921,751.295837 1513.413574,751.622681 1512.991943,751.993835
	C1512.991943,751.993835 1512.975464,751.922180 1512.354858,751.948730
M1514.043579,1313.066162
	C1514.043579,1313.066162 1514.051880,1313.151611 1514.707031,1313.162231
	C1515.437378,1312.761353 1516.167603,1312.360474 1516.957397,1311.998047
	C1516.957397,1311.998047 1516.978394,1311.930298 1517.674194,1311.921021
	C1518.514404,1310.936890 1519.354614,1309.952637 1520.703613,1308.327271
	C1520.803833,1307.508423 1520.991577,1306.689697 1520.991699,1305.870850
	C1521.005859,1228.660034 1521.010376,1151.449341 1520.968262,1074.238525
	C1520.967407,1072.831177 1520.396729,1071.424194 1519.363647,1069.808350
	C1517.247314,1070.877319 1515.130981,1071.946289 1512.579834,1073.075806
	C1512.276367,1073.138550 1512.038208,1073.298462 1511.219482,1073.700806
	C1510.495117,1074.136719 1509.770630,1074.572754 1508.331665,1075.129517
	C1470.958618,1094.025635 1433.575073,1112.901001 1396.216919,1131.826416
	C1377.111572,1141.505127 1358.051636,1151.273438 1338.324463,1161.359009
	C1338.280640,1162.569336 1338.236694,1163.779663 1338.116943,1165.925293
	C1338.129639,1227.576660 1338.127319,1289.228149 1338.164795,1350.879517
	C1338.174683,1367.205200 1338.307617,1383.530762 1338.371338,1400.496826
	C1339.271606,1400.356323 1340.171875,1400.215942 1341.770020,1399.916870
	C1373.544434,1384.034790 1405.333984,1368.183105 1437.086426,1352.257080
	C1451.757690,1344.898560 1466.355957,1337.394409 1481.647095,1329.911133
	C1482.571899,1329.330933 1483.496704,1328.750732 1484.738037,1328.170532
	C1484.738037,1328.170532 1484.989746,1327.978516 1485.666138,1327.919678
	C1487.159790,1326.992065 1488.653564,1326.064575 1490.060913,1325.094238
	C1490.060913,1325.094238 1490.071899,1325.190063 1490.741211,1325.174927
	C1491.306274,1324.843384 1491.871338,1324.511841 1492.750000,1324.189209
	C1492.750000,1324.189209 1493.000000,1323.999756 1493.697998,1323.920410
	C1495.938232,1322.669434 1498.178467,1321.418457 1500.736450,1320.169922
	C1500.736450,1320.169922 1500.989624,1319.978027 1501.690796,1319.911377
	C1503.943848,1318.665894 1506.196899,1317.420410 1508.754761,1316.186035
	C1508.754761,1316.186035 1508.995117,1315.997925 1509.585083,1315.965576
	C1510.053223,1315.625244 1510.521362,1315.284912 1511.574463,1314.903931
	C1512.040405,1314.578003 1512.506348,1314.251953 1513.487793,1313.847534
	C1513.701050,1313.592651 1513.914307,1313.337769 1514.043579,1313.066162
M1058.086914,1216.154053
	C1058.086914,1216.154053 1058.124756,1216.249268 1058.783936,1216.236206
	C1059.526489,1215.826050 1060.269043,1215.415894 1061.722412,1214.901733
	C1079.273560,1206.157349 1096.825195,1197.414062 1114.375732,1188.668091
	C1163.150391,1164.361938 1211.917847,1140.041016 1260.718506,1115.786743
	C1263.243652,1114.531860 1264.468628,1113.070801 1264.352295,1110.078369
	C1264.119751,1104.097900 1264.297974,1098.101562 1264.737671,1091.406250
	C1264.798584,1066.976196 1264.859375,1042.546143 1265.006104,1017.167480
	C1265.008789,971.271729 1265.018921,925.375916 1264.969360,879.480225
	C1264.968262,878.395935 1264.297729,877.312500 1263.247437,876.298645
	C1261.726562,876.971008 1260.175781,877.583313 1258.689209,878.324524
	C1217.594238,898.813782 1176.492310,919.289185 1135.421631,939.827209
	C1113.563232,950.757751 1091.760864,961.800171 1069.333374,972.890869
	C1068.863770,973.241516 1068.394043,973.592102 1068.000366,973.986450
	C1068.000366,973.986450 1067.948608,973.915588 1067.227295,973.977539
	C1064.784058,975.291504 1062.340942,976.605408 1059.999634,977.945740
	C1059.999634,977.945740 1059.921021,977.875671 1059.209595,977.936829
	C1056.884033,978.993835 1054.558350,980.050903 1051.519531,981.560059
	C1051.344116,983.023438 1051.015869,984.486755 1051.015381,985.950195
	C1050.989502,1062.069702 1050.985474,1138.189331 1051.030762,1214.308838
	C1051.031616,1215.872314 1051.636963,1217.435425 1052.669067,1219.086792
	C1053.913086,1218.442993 1055.156982,1217.799316 1056.735229,1217.140503
	C1056.735229,1217.140503 1057.001831,1216.938354 1057.514526,1216.883179
	C1057.739136,1216.644531 1057.963867,1216.406006 1058.086914,1216.154053
M1059.271851,1300.839966
	C1058.752075,1301.178589 1058.232178,1301.517090 1057.323242,1301.894897
	C1057.323242,1301.894897 1057.000366,1302.115723 1056.318970,1302.129028
	C1054.824219,1303.089111 1053.329468,1304.049194 1051.306641,1305.640503
	C1051.204102,1306.292725 1051.011963,1306.944946 1051.011841,1307.597168
	C1050.997681,1385.345825 1050.991455,1463.094482 1051.046509,1540.843140
	C1051.047363,1542.180298 1051.791992,1543.516968 1052.791748,1544.656494
	C1054.229980,1543.803833 1055.668091,1542.951172 1056.992432,1542.084106
	C1056.992432,1542.084106 1057.096313,1542.133423 1057.794800,1542.033447
	C1060.228516,1540.709106 1062.662354,1539.384888 1065.804199,1537.959595
	C1096.138916,1522.818237 1126.491455,1507.712402 1156.801025,1492.520752
	C1172.490967,1484.656616 1188.061768,1476.554199 1203.764282,1468.715454
	C1222.508179,1459.358398 1241.294922,1450.084229 1260.161987,1440.979004
	C1263.799927,1439.223389 1265.008301,1437.055054 1264.984497,1433.011475
	C1264.782593,1398.689697 1264.833984,1364.366333 1264.795166,1330.043457
	C1264.746582,1287.057739 1264.684448,1244.072144 1264.806885,1200.500000
	C1264.758423,1200.301392 1264.710083,1200.102905 1264.680420,1199.361816
	C1264.170288,1199.061401 1263.660156,1198.760986 1262.692261,1198.395386
	C1262.371094,1198.491943 1262.155762,1198.698730 1261.398315,1199.290039
	C1244.754517,1207.624146 1228.110840,1215.958740 1211.466675,1224.292114
	C1180.851562,1239.620972 1150.218506,1254.913696 1119.628052,1270.291260
	C1101.381592,1279.463745 1083.201904,1288.769165 1064.422363,1298.088501
	C1064.153687,1298.351074 1063.885010,1298.613770 1063.274902,1298.887085
	C1063.274902,1298.887085 1062.991821,1299.078247 1062.357422,1299.088989
	C1061.516357,1299.670288 1060.675415,1300.251465 1059.921509,1300.903564
	C1059.921509,1300.903564 1059.907593,1300.792358 1059.271851,1300.839966
M634.202576,1075.744507
	C646.585815,1099.619019 658.967102,1123.494385 671.352783,1147.367676
	C705.507141,1213.199951 739.626587,1279.050293 773.836243,1344.853760
	C788.332947,1372.738770 802.712219,1400.692627 817.757935,1428.280884
	C824.771973,1441.141968 833.034058,1453.695312 845.753784,1461.630615
	C888.649109,1488.391357 931.859924,1514.646240 975.439941,1541.654053
	C975.946655,1541.037964 976.892578,1540.421509 976.892273,1539.805542
	C976.889099,1533.520386 976.732056,1527.235229 976.710571,1520.025146
	C976.725159,1519.525879 976.752502,1519.026733 976.752625,1518.527466
	C976.782837,1341.050293 976.797180,1163.573120 976.938477,986.096069
	C976.941406,982.449707 975.488892,980.817444 972.583435,979.356995
	C927.384766,956.636780 882.217773,933.853455 837.031433,911.108643
	C835.958130,910.568420 834.745789,910.304382 832.969971,909.696472
	C832.969971,1013.299927 832.969971,1116.148560 832.969971,1218.997070
	C831.510742,1217.716919 830.735840,1216.308350 830.050049,1214.857544
	C810.447937,1173.388062 790.788208,1131.945435 771.286072,1090.428955
	C760.421936,1067.301392 749.957275,1043.986084 739.075256,1020.867188
	C716.868225,973.688354 694.456177,926.605957 672.220581,879.440613
	C662.969604,859.817871 653.654480,840.215027 644.976990,820.337524
	C641.462891,812.287842 635.927734,807.065857 628.425293,803.239746
	C593.588806,785.473816 558.780457,767.652710 523.962708,749.850098
	C517.819336,746.708862 511.678986,743.561707 504.985718,740.134949
	C504.985718,742.347168 504.985657,743.670471 504.985687,744.993774
	C504.986237,925.637268 504.986877,1106.280762 504.987579,1286.924316
	C504.987579,1287.590942 505.074829,1288.270630 504.974854,1288.921753
	C504.566223,1291.583862 505.632507,1293.006348 508.113190,1294.271484
	C516.705872,1298.653442 525.114502,1303.395020 533.613037,1307.962891
	C565.275391,1324.980347 596.938232,1341.996826 628.646118,1358.929077
	C629.658813,1359.469849 631.162964,1359.090332 632.842773,1358.411987
	C632.898193,1356.918945 633.002014,1355.425781 633.002136,1353.932739
	C633.008484,1263.057129 633.000366,1172.181396 633.043152,1081.305786
	C633.044128,1079.241943 633.612366,1077.178467 634.202576,1075.744507
M853.617249,807.096985
	C844.623352,811.857056 835.629456,816.617126 826.060364,821.681641
	C827.862061,822.717407 828.831360,823.338867 829.854492,823.853638
	C889.637695,853.929932 949.412659,884.022766 1009.273926,913.942932
	C1011.063599,914.837341 1014.131775,914.651489 1015.983521,913.726929
	C1059.778320,891.862122 1103.488525,869.827820 1147.212524,847.821106
	C1167.723022,837.498047 1188.229980,827.167969 1209.352905,816.531616
	C1207.525024,815.461792 1206.315063,814.666870 1205.031982,814.015686
	C1187.959106,805.351013 1170.873901,796.710754 1153.795898,788.056213
	C1110.728149,766.231079 1067.650513,744.425476 1024.619019,722.529236
	C1021.178162,720.778320 1018.200134,720.652405 1014.758057,722.510193
	C1002.750366,728.990906 990.643311,735.287781 978.560242,741.628235
	C937.143555,763.360901 895.721130,785.082397 853.617249,807.096985
M880.086853,707.595032
	C898.348145,698.040039 916.609375,688.485107 936.011902,678.333008
	C932.166870,676.137878 929.273315,674.318237 926.237488,672.779114
	C899.077209,659.009216 871.891052,645.290405 844.714355,631.552917
	C818.728394,618.417419 792.452332,605.812378 766.914490,591.856689
	C757.669556,586.804565 750.824097,588.042480 742.206177,592.424194
	C688.997559,619.477600 635.555664,646.072021 582.193970,672.824402
	C573.809509,677.027893 565.438782,681.258789 556.354004,685.833435
	C558.630127,687.081665 560.028687,687.905273 561.475098,688.633850
	C616.309753,716.256348 671.327087,743.525818 725.844055,771.761475
	C737.413452,777.753601 746.062988,778.566345 758.013489,771.939270
	C798.015381,749.756409 838.886902,729.141724 880.086853,707.595032
M1325.604126,613.952271
	C1309.687256,605.955811 1293.707397,598.080261 1277.903442,589.866699
	C1274.511841,588.104065 1272.032959,588.211365 1268.730103,589.966797
	C1224.647705,613.395569 1180.485718,636.674438 1136.350464,660.003906
	C1125.631592,665.669861 1114.938232,671.383789 1103.730957,677.342712
	C1105.246338,678.277954 1106.156616,678.936035 1107.146362,679.436890
	C1167.288330,709.868896 1227.486206,740.191162 1287.493652,770.885803
	C1292.478149,773.435425 1295.915283,773.046326 1300.473633,770.737915
	C1349.765381,745.775269 1399.143799,720.983521 1448.489746,696.127686
	C1454.943604,692.876892 1461.348511,689.528625 1468.444336,685.882019
	C1420.421753,661.690125 1373.350952,637.977661 1325.604126,613.952271
M1095.349731,498.138702
	C1069.191284,484.973267 1043.055420,471.762207 1016.823364,458.745026
	C1015.075745,457.877777 1012.199585,457.681122 1010.517456,458.517822
	C954.628540,486.317780 898.820007,514.279297 843.014099,542.245911
	C842.108765,542.699585 841.381897,543.509399 840.373779,544.310364
	C841.534912,544.983337 842.230591,545.433960 842.966064,545.806030
	C901.028503,575.173035 959.078735,604.564514 1017.226746,633.761169
	C1019.157593,634.730652 1022.520996,634.548584 1024.479004,633.511169
	C1063.437500,612.869019 1102.286011,592.019653 1141.159058,571.216187
	C1156.991089,562.743408 1172.828369,554.280090 1189.454346,545.389404
	C1157.825073,529.524536 1126.910400,514.018127 1095.349731,498.138702
z"/>
<path fill="#EEEEEE" opacity="1.000000" stroke="none"
	d="
M2001.000000,5.509308
	C1693.303711,5.667847 1385.607666,5.193443 1077.911255,5.041697
	C738.811523,4.874464 399.711700,4.986915 60.611919,5.046359
	C41.025436,5.049792 21.439064,5.671747 1.426320,6.002925
	C1.000000,4.333733 1.000000,2.667465 1.000000,1.005464
	C667.666687,1.009730 1334.333374,1.009730 2001.000000,1.014596
	C2001.000000,2.352512 2001.000000,3.685564 2001.000000,5.509308
z"/>
<path fill="#EEEEEE" opacity="1.000000" stroke="none"
	d="
M1.000000,1996.490723
	C330.192047,1996.332153 659.384033,1996.789429 988.576111,1996.960938
	C1306.013672,1997.126221 1623.451416,1997.014526 1940.889038,1996.953735
	C1960.641846,1996.949951 1980.394531,1996.328125 2000.573730,1995.996948
	C2001.000000,1997.666260 2001.000000,1999.332520 2001.000000,2000.994507
	C1334.333374,2000.990234 667.666687,2000.990234 1.000000,2000.985352
	C1.000000,1999.647583 1.000000,1998.314453 1.000000,1996.490723
z"/>
<path fill="#EEEEEE" opacity="1.000000" stroke="none"
	d="
M1.000000,13.468657
	C3.984550,12.611663 5.404068,13.792394 5.027615,16.910000
	C4.908614,17.895504 5.009977,18.907581 5.009977,19.907497
	C5.010026,674.019348 5.012614,1328.131226 4.908779,1982.243042
	C4.908403,1984.604858 7.216738,1988.767090 1.423298,1988.998535
	C1.000000,1330.645752 1.000000,672.291565 1.000000,13.468657
z"/>
<path fill="#EEEEEE" opacity="1.000000" stroke="none"
	d="
M2001.000000,1987.531372
	C1998.002563,1988.407837 1996.602051,1987.209961 1996.972656,1984.098145
	C1997.090088,1983.112183 1996.990112,1982.100464 1996.990112,1981.100464
	C1996.990112,1327.317749 1996.987549,673.535034 1997.091553,19.752291
	C1997.091919,17.391100 1994.781494,13.227775 2000.576416,12.998890
	C2001.000000,671.020935 2001.000000,1329.041870 2001.000000,1987.531372
z"/>
<path fill="#4D76CE" opacity="1.000000" stroke="none"
	d="
M974.950134,1541.094604
	C931.859924,1514.646240 888.649109,1488.391357 845.753784,1461.630615
	C833.034058,1453.695312 824.771973,1441.141968 817.757935,1428.280884
	C802.712219,1400.692627 788.332947,1372.738770 773.836243,1344.853760
	C739.626587,1279.050293 705.507141,1213.199951 671.352783,1147.367676
	C658.967102,1123.494385 646.585815,1099.619019 633.983765,1075.096680
	C630.457214,1074.230957 632.076416,1076.799316 632.075317,1077.934570
	C631.988342,1169.855469 631.992798,1261.776367 632.013794,1353.697388
	C632.014221,1355.511475 632.290466,1357.325684 632.437988,1359.139771
	C631.162964,1359.090332 629.658813,1359.469849 628.646118,1358.929077
	C596.938232,1341.996826 565.275391,1324.980347 533.613037,1307.962891
	C525.114502,1303.395020 516.705872,1298.653442 508.113190,1294.271484
	C505.632507,1293.006348 504.566223,1291.583862 504.974854,1288.921753
	C505.074829,1288.270630 504.987579,1287.590942 504.987579,1286.924316
	C504.986877,1106.280762 504.986237,925.637268 504.985687,744.993774
	C504.985657,743.670471 504.985718,742.347168 504.985718,740.134949
	C511.678986,743.561707 517.819336,746.708862 523.962708,749.850098
	C558.780457,767.652710 593.588806,785.473816 628.425293,803.239746
	C635.927734,807.065857 641.462891,812.287842 644.976990,820.337524
	C653.654480,840.215027 662.969604,859.817871 672.220581,879.440613
	C694.456177,926.605957 716.868225,973.688354 739.075256,1020.867188
	C749.957275,1043.986084 760.421936,1067.301392 771.286072,1090.428955
	C790.788208,1131.945435 810.447937,1173.388062 830.050049,1214.857544
	C830.735840,1216.308350 831.510742,1217.716919 832.969971,1218.997070
	C832.969971,1116.148560 832.969971,1013.299927 832.969971,909.696472
	C834.745789,910.304382 835.958130,910.568420 837.031433,911.108643
	C882.217773,933.853455 927.384766,956.636780 972.583435,979.356995
	C975.488892,980.817444 976.941406,982.449707 976.938477,986.096069
	C976.797180,1163.573120 976.782837,1341.050293 976.752625,1518.527466
	C976.752502,1519.026733 976.725159,1519.525879 976.449097,1520.836670
	C976.115234,1523.619995 976.094177,1525.595581 975.960083,1527.563232
	C975.652710,1532.075806 975.290222,1536.584351 974.950134,1541.094604
z"/>
<path fill="#4DABCF" opacity="1.000000" stroke="none"
	d="
M1062.991821,1299.078247
	C1062.991821,1299.078247 1063.274902,1298.887085 1063.735474,1298.848145
	C1064.461426,1298.544434 1064.726807,1298.279663 1064.992188,1298.014893
	C1083.201904,1288.769165 1101.381592,1279.463745 1119.628052,1270.291260
	C1150.218506,1254.913696 1180.851562,1239.620972 1211.466675,1224.292114
	C1228.110840,1215.958740 1244.754517,1207.624146 1261.938721,1199.136841
	C1262.771484,1198.897461 1262.995117,1198.723022 1263.150024,1198.460449
	C1263.660156,1198.760986 1264.170288,1199.061401 1264.537598,1199.753174
	C1264.356445,1200.258179 1264.259033,1200.394165 1264.291748,1200.481201
	C1264.372070,1200.694946 1264.512085,1200.886108 1264.628174,1201.086426
	C1264.684448,1244.072144 1264.746582,1287.057739 1264.795166,1330.043457
	C1264.833984,1364.366333 1264.782593,1398.689697 1264.984497,1433.011475
	C1265.008301,1437.055054 1263.799927,1439.223389 1260.161987,1440.979004
	C1241.294922,1450.084229 1222.508179,1459.358398 1203.764282,1468.715454
	C1188.061768,1476.554199 1172.490967,1484.656616 1156.801025,1492.520752
	C1126.491455,1507.712402 1096.138916,1522.818237 1065.074463,1537.990234
	C1060.692139,1537.212402 1058.455811,1538.900391 1057.096313,1542.133423
	C1057.096313,1542.133423 1056.992432,1542.084106 1056.618408,1542.053955
	C1051.601318,1542.151367 1053.053711,1538.624268 1053.052002,1536.326782
	C1052.994141,1462.732788 1053.031250,1389.138672 1052.946167,1315.544800
	C1052.940308,1310.536133 1052.745239,1305.722290 1057.000366,1302.115723
	C1057.000366,1302.115723 1057.323242,1301.894897 1057.860352,1301.903809
	C1058.901001,1301.539307 1059.404297,1301.165894 1059.907593,1300.792358
	C1059.907593,1300.792358 1059.921509,1300.903564 1060.209229,1300.906982
	C1061.328491,1300.299561 1062.160156,1299.688843 1062.991821,1299.078247
z"/>
<path fill="#4DABCF" opacity="1.000000" stroke="none"
	d="
M1057.001831,1216.938354
	C1057.001831,1216.938354 1056.735229,1217.140503 1056.119385,1217.088135
	C1051.411621,1216.427856 1053.079956,1213.185547 1053.077515,1211.097778
	C1052.990723,1137.686157 1053.009277,1064.274414 1052.995850,990.862732
	C1052.994995,985.723999 1053.045410,980.699463 1059.571045,979.260010
	C1059.779297,979.214050 1059.808350,978.355469 1059.920898,977.875671
	C1059.921021,977.875671 1059.999634,977.945740 1060.327881,977.930664
	C1063.086914,976.582275 1065.517700,975.248962 1067.948608,973.915649
	C1067.948608,973.915588 1068.000366,973.986450 1068.284058,973.964050
	C1069.022827,973.558472 1069.478027,973.175293 1069.933228,972.792114
	C1091.760864,961.800171 1113.563232,950.757751 1135.421631,939.827209
	C1176.492310,919.289185 1217.594238,898.813782 1258.689209,878.324524
	C1260.175781,877.583313 1261.726562,876.971008 1263.590332,876.713501
	C1263.994385,924.074158 1264.055664,971.019958 1264.053467,1018.433044
	C1263.980225,1031.025024 1263.921387,1043.150024 1263.974121,1055.274414
	C1264.027588,1067.553711 1264.191284,1079.832642 1264.306641,1092.111694
	C1264.297974,1098.101562 1264.119751,1104.097900 1264.352295,1110.078369
	C1264.468628,1113.070801 1263.243652,1114.531860 1260.718506,1115.786743
	C1211.917847,1140.041016 1163.150391,1164.361938 1114.375732,1188.668091
	C1096.825195,1197.414062 1079.273560,1206.157349 1061.017700,1214.947510
	C1059.583618,1215.411987 1058.854248,1215.830688 1058.124756,1216.249268
	C1058.124756,1216.249268 1058.086914,1216.154053 1057.884521,1216.188354
	C1057.455322,1216.461182 1057.228516,1216.699707 1057.001831,1216.938354
z"/>
<path fill="#4DABCF" opacity="1.000000" stroke="none"
	d="
M1484.989746,1327.978516
	C1484.989746,1327.978516 1484.738037,1328.170532 1484.221191,1328.133423
	C1482.798706,1328.716309 1481.893066,1329.336182 1480.987305,1329.956177
	C1466.355957,1337.394409 1451.757690,1344.898560 1437.086426,1352.257080
	C1405.333984,1368.183105 1373.544434,1384.034790 1341.084229,1399.961670
	C1339.726929,1399.956421 1339.055420,1399.906372 1338.384033,1399.856445
	C1338.307617,1383.530762 1338.174683,1367.205200 1338.164795,1350.879517
	C1338.127319,1289.228149 1338.129639,1227.576660 1338.386475,1165.201172
	C1338.761108,1163.318481 1338.866211,1162.159912 1338.971191,1161.001343
	C1358.051636,1151.273438 1377.111572,1141.505127 1396.216919,1131.826416
	C1433.575073,1112.901001 1470.958618,1094.025635 1509.046753,1075.066650
	C1510.463013,1074.521118 1511.164185,1074.038330 1511.865356,1073.555542
	C1512.038208,1073.298462 1512.276367,1073.138550 1513.196899,1073.041748
	C1515.358276,1072.762817 1516.902466,1072.517944 1518.716553,1072.230469
	C1518.827271,1074.004517 1518.979858,1075.311646 1518.980103,1076.618774
	C1518.991455,1151.265381 1519.019653,1225.911865 1518.904541,1300.558350
	C1518.898682,1304.349976 1517.648926,1308.139648 1516.978271,1311.930298
	C1516.978394,1311.930298 1516.957397,1311.998047 1516.593994,1311.987427
	C1515.504272,1312.368408 1514.778076,1312.760010 1514.051880,1313.151611
	C1514.051880,1313.151611 1514.043579,1313.066162 1513.837891,1313.127441
	C1513.412231,1313.434448 1513.192139,1313.680176 1512.972168,1313.925903
	C1512.506348,1314.251953 1512.040405,1314.578003 1511.104736,1314.703003
	C1510.088379,1315.000732 1509.541748,1315.499268 1508.995117,1315.997925
	C1508.995117,1315.997925 1508.754761,1316.186035 1508.191406,1316.131104
	C1505.415283,1317.376709 1503.202393,1318.677368 1500.989624,1319.978027
	C1500.989624,1319.978027 1500.736450,1320.169922 1500.168945,1320.120728
	C1497.401001,1321.380981 1495.200562,1322.690308 1493.000000,1323.999756
	C1493.000000,1323.999756 1492.750000,1324.189209 1492.233398,1324.146240
	C1491.168579,1324.465576 1490.620239,1324.827881 1490.071899,1325.190186
	C1490.071899,1325.190063 1490.060913,1325.094238 1489.732422,1325.097168
	C1487.932495,1326.059448 1486.461060,1327.018921 1484.989746,1327.978516
z"/>
<path fill="#4DABCF" opacity="1.000000" stroke="none"
	d="
M1508.979980,753.911377
	C1509.422974,753.606506 1509.865967,753.301697 1510.906738,752.974915
	C1511.994629,752.609375 1512.485107,752.265808 1512.975464,751.922180
	C1512.975464,751.922180 1512.991943,751.993835 1513.275024,751.976379
	C1514.032227,751.616150 1514.506348,751.273376 1514.980469,750.930664
	C1514.980469,750.930603 1514.994019,750.996216 1515.377563,751.003784
	C1520.336792,751.458923 1518.944336,755.025635 1518.946289,757.546631
	C1519.004883,833.369507 1518.992432,909.192444 1518.991089,985.015381
	C1518.991089,985.015381 1518.747314,985.188843 1518.297363,985.198242
	C1517.574097,985.480896 1517.300659,985.754150 1517.027222,986.027344
	C1502.875977,993.349304 1488.755127,1000.730896 1474.567139,1007.980957
	C1443.471680,1023.870850 1412.341675,1039.693481 1381.226685,1055.545288
	C1368.639526,1061.957886 1356.054688,1068.375000 1342.740967,1074.864014
	C1337.831909,1073.734131 1339.064087,1070.220581 1339.061768,1067.485962
	C1338.998901,993.616577 1338.997559,919.747253 1339.047485,845.877869
	C1339.049316,843.265198 1339.679077,840.652832 1340.016113,838.040344
	C1340.016113,838.040344 1340.012329,837.991882 1340.396851,838.005737
	C1341.849121,837.381042 1342.916992,836.742554 1343.984863,836.104065
	C1356.703369,829.620361 1369.373169,823.039001 1382.149414,816.670959
	C1423.462769,796.079102 1464.815186,775.565796 1506.828613,754.987854
	C1507.996460,754.606079 1508.488281,754.258728 1508.979980,753.911377
z"/>
<path fill="#4EABCF" opacity="1.000000" stroke="none"
	d="
M853.959045,806.952576
	C895.721130,785.082397 937.143555,763.360901 978.560242,741.628235
	C990.643311,735.287781 1002.750366,728.990906 1014.758057,722.510193
	C1018.200134,720.652405 1021.178162,720.778320 1024.619019,722.529236
	C1067.650513,744.425476 1110.728149,766.231079 1153.795898,788.056213
	C1170.873901,796.710754 1187.959106,805.351013 1205.031982,814.015686
	C1206.315063,814.666870 1207.525024,815.461792 1209.352905,816.531616
	C1188.229980,827.167969 1167.723022,837.498047 1147.212524,847.821106
	C1103.488525,869.827820 1059.778320,891.862122 1015.983521,913.726929
	C1014.131775,914.651489 1011.063599,914.837341 1009.273926,913.942932
	C949.412659,884.022766 889.637695,853.929932 829.854492,823.853638
	C828.831360,823.338867 827.862061,822.717407 826.060364,821.681641
	C835.629456,816.617126 844.623352,811.857056 853.959045,806.952576
z"/>
<path fill="#4EABCF" opacity="1.000000" stroke="none"
	d="
M879.756165,707.760742
	C838.886902,729.141724 798.015381,749.756409 758.013489,771.939270
	C746.062988,778.566345 737.413452,777.753601 725.844055,771.761475
	C671.327087,743.525818 616.309753,716.256348 561.475098,688.633850
	C560.028687,687.905273 558.630127,687.081665 556.354004,685.833435
	C565.438782,681.258789 573.809509,677.027893 582.193970,672.824402
	C635.555664,646.072021 688.997559,619.477600 742.206177,592.424194
	C750.824097,588.042480 757.669556,586.804565 766.914490,591.856689
	C792.452332,605.812378 818.728394,618.417419 844.714355,631.552917
	C871.891052,645.290405 899.077209,659.009216 926.237488,672.779114
	C929.273315,674.318237 932.166870,676.137878 936.011902,678.333008
	C916.609375,688.485107 898.348145,698.040039 879.756165,707.760742
z"/>
<path fill="#4EABCF" opacity="1.000000" stroke="none"
	d="
M1325.942139,614.108765
	C1373.350952,637.977661 1420.421753,661.690125 1468.444336,685.882019
	C1461.348511,689.528625 1454.943604,692.876892 1448.489746,696.127686
	C1399.143799,720.983521 1349.765381,745.775269 1300.473633,770.737915
	C1295.915283,773.046326 1292.478149,773.435425 1287.493652,770.885803
	C1227.486206,740.191162 1167.288330,709.868896 1107.146362,679.436890
	C1106.156616,678.936035 1105.246338,678.277954 1103.730957,677.342712
	C1114.938232,671.383789 1125.631592,665.669861 1136.350464,660.003906
	C1180.485718,636.674438 1224.647705,613.395569 1268.730103,589.966797
	C1272.032959,588.211365 1274.511841,588.104065 1277.903442,589.866699
	C1293.707397,598.080261 1309.687256,605.955811 1325.942139,614.108765
z"/>
<path fill="#4EABCF" opacity="1.000000" stroke="none"
	d="
M1095.672729,498.325256
	C1126.910400,514.018127 1157.825073,529.524536 1189.454346,545.389404
	C1172.828369,554.280090 1156.991089,562.743408 1141.159058,571.216187
	C1102.286011,592.019653 1063.437500,612.869019 1024.479004,633.511169
	C1022.520996,634.548584 1019.157593,634.730652 1017.226746,633.761169
	C959.078735,604.564514 901.028503,575.173035 842.966064,545.806030
	C842.230591,545.433960 841.534912,544.983337 840.373779,544.310364
	C841.381897,543.509399 842.108765,542.699585 843.014099,542.245911
	C898.820007,514.279297 954.628540,486.317780 1010.517456,458.517822
	C1012.199585,457.681122 1015.075745,457.877777 1016.823364,458.745026
	C1043.055420,471.762207 1069.191284,484.973267 1095.672729,498.325256
z"/>
<path fill="#A2BCED" opacity="1.000000" stroke="none"
	d="
M632.640381,1358.775879
	C632.290466,1357.325684 632.014221,1355.511475 632.013794,1353.697388
	C631.992798,1261.776367 631.988342,1169.855469 632.075317,1077.934570
	C632.076416,1076.799316 630.457214,1074.230957 633.840454,1074.781860
	C633.612366,1077.178467 633.044128,1079.241943 633.043152,1081.305786
	C633.000366,1172.181396 633.008484,1263.057129 633.002136,1353.932739
	C633.002014,1355.425781 632.898193,1356.918945 632.640381,1358.775879
z"/>
<path fill="#66A6C1" opacity="1.000000" stroke="none"
	d="
M1059.565186,977.906250
	C1059.808350,978.355469 1059.779297,979.214050 1059.571045,979.260010
	C1053.045410,980.699463 1052.994995,985.723999 1052.995850,990.862732
	C1053.009277,1064.274414 1052.990723,1137.686157 1053.077515,1211.097778
	C1053.079956,1213.185547 1051.411621,1216.427856 1055.952271,1217.095581
	C1055.156982,1217.799316 1053.913086,1218.442993 1052.329346,1218.574951
	C1051.991943,1141.239502 1051.992065,1064.415894 1052.005981,987.592346
	C1052.006470,985.430847 1052.153931,983.269409 1052.232788,981.107910
	C1054.558350,980.050903 1056.884033,978.993835 1059.565186,977.906250
z"/>
<path fill="#66A6C1" opacity="1.000000" stroke="none"
	d="
M1517.326172,1311.925659
	C1517.648926,1308.139648 1518.898682,1304.349976 1518.904541,1300.558350
	C1519.019653,1225.911865 1518.991455,1151.265381 1518.980103,1076.618774
	C1518.979858,1075.311646 1518.827271,1074.004517 1518.716553,1072.230469
	C1516.902466,1072.517944 1515.358276,1072.762817 1513.414307,1073.011475
	C1515.130981,1071.946289 1517.247314,1070.877319 1519.703613,1070.378174
	C1520.025269,1149.461182 1520.006226,1227.974487 1519.996826,1306.487671
	C1519.996704,1307.314575 1520.125854,1308.141479 1520.194702,1308.968384
	C1519.354614,1309.952637 1518.514404,1310.936890 1517.326172,1311.925659
z"/>
<path fill="#66A6C1" opacity="1.000000" stroke="none"
	d="
M1056.659668,1302.122314
	C1052.745239,1305.722290 1052.940308,1310.536133 1052.946167,1315.544800
	C1053.031250,1389.138672 1052.994141,1462.732788 1053.052002,1536.326782
	C1053.053711,1538.624268 1051.601318,1542.151367 1056.675415,1542.061157
	C1055.668091,1542.951172 1054.229980,1543.803833 1052.444702,1544.301514
	C1052.061768,1540.947998 1051.994507,1537.949463 1051.994263,1534.950806
	C1051.988770,1460.467163 1051.991699,1385.983643 1051.984131,1311.500000
	C1051.983887,1309.336426 1051.886719,1307.172974 1051.834839,1305.009399
	C1053.329468,1304.049194 1054.824219,1303.089111 1056.659668,1302.122314
z"/>
<path fill="#66A6C1" opacity="1.000000" stroke="none"
	d="
M1339.710693,838.043030
	C1339.679077,840.652832 1339.049316,843.265198 1339.047485,845.877869
	C1338.997559,919.747253 1338.998901,993.616577 1339.061768,1067.485962
	C1339.064087,1070.220581 1337.831909,1073.734131 1342.386230,1074.937500
	C1341.178833,1075.177246 1339.598022,1075.417114 1338.017090,1074.856934
	C1338.014038,1005.539795 1338.011841,937.022827 1338.000122,868.505859
	C1338.000000,867.678833 1337.877441,866.851746 1337.812012,866.024719
	C1337.847168,862.646484 1337.882324,859.268250 1337.940063,854.973267
	C1337.943359,849.046509 1337.924072,844.036499 1337.904785,839.026428
	C1338.404907,838.699524 1338.905029,838.372620 1339.710693,838.043030
z"/>
<path fill="#66A6C1" opacity="1.000000" stroke="none"
	d="
M1519.267822,984.953857
	C1518.992432,909.192444 1519.004883,833.369507 1518.946289,757.546631
	C1518.944336,755.025635 1520.336792,751.458923 1515.350098,750.984436
	C1516.527344,750.187927 1518.115479,749.418274 1519.874268,749.310242
	C1520.031738,827.143005 1520.018311,904.314148 1520.012939,981.485229
	C1520.012939,982.313416 1520.119751,983.141541 1520.176758,983.969727
	C1519.966064,984.277283 1519.755371,984.584778 1519.267822,984.953857
z"/>
<path fill="#CBF3FF" opacity="1.000000" stroke="none"
	d="
M1051.570801,1305.324951
	C1051.886719,1307.172974 1051.983887,1309.336426 1051.984131,1311.500000
	C1051.991699,1385.983643 1051.988770,1460.467163 1051.994263,1534.950806
	C1051.994507,1537.949463 1052.061768,1540.947998 1052.143555,1544.400269
	C1051.791992,1543.516968 1051.047363,1542.180298 1051.046509,1540.843140
	C1050.991455,1463.094482 1050.997681,1385.345825 1051.011841,1307.597168
	C1051.011963,1306.944946 1051.204102,1306.292725 1051.570801,1305.324951
z"/>
<path fill="#E2FEFF" opacity="1.000000" stroke="none"
	d="
M1520.449219,1308.647827
	C1520.125854,1308.141479 1519.996704,1307.314575 1519.996826,1306.487671
	C1520.006226,1227.974487 1520.025269,1149.461182 1520.067871,1070.482422
	C1520.396729,1071.424194 1520.967407,1072.831177 1520.968262,1074.238525
	C1521.010376,1151.449341 1521.005859,1228.660034 1520.991699,1305.870850
	C1520.991577,1306.689697 1520.803833,1307.508423 1520.449219,1308.647827
z"/>
<path fill="#CBF3FF" opacity="1.000000" stroke="none"
	d="
M1051.876221,981.333984
	C1052.153931,983.269409 1052.006470,985.430847 1052.005981,987.592346
	C1051.992065,1064.415894 1051.991943,1141.239502 1051.974976,1218.530884
	C1051.636963,1217.435425 1051.031616,1215.872314 1051.030762,1214.308838
	C1050.985474,1138.189331 1050.989502,1062.069702 1051.015381,985.950195
	C1051.015869,984.486755 1051.344116,983.023438 1051.876221,981.333984
z"/>
<path fill="#E2FEFF" opacity="1.000000" stroke="none"
	d="
M1520.436523,983.652588
	C1520.119751,983.141541 1520.012939,982.313416 1520.012939,981.485229
	C1520.018311,904.314148 1520.031738,827.143005 1520.083252,749.509888
	C1520.416138,750.458374 1520.967285,751.868713 1520.968018,753.279297
	C1521.009644,828.980408 1521.006104,904.681458 1520.992065,980.382568
	C1520.991943,981.366882 1520.799072,982.351196 1520.436523,983.652588
z"/>
<path fill="#E2FEFF" opacity="1.000000" stroke="none"
	d="
M1337.556641,866.345276
	C1337.877441,866.851746 1338.000000,867.678833 1338.000122,868.505859
	C1338.011841,937.022827 1338.014038,1005.539795 1337.947876,1074.519287
	C1337.584229,1073.568970 1337.032837,1072.156250 1337.031982,1070.743286
	C1336.990845,1003.535767 1336.996216,936.328186 1337.010864,869.120667
	C1337.011108,868.302368 1337.200317,867.484131 1337.556641,866.345276
z"/>
<path fill="#CBF3FF" opacity="1.000000" stroke="none"
	d="
M1264.116943,1017.965698
	C1264.055664,971.019958 1263.994385,924.074158 1263.936279,876.678528
	C1264.297729,877.312500 1264.968262,878.395935 1264.969360,879.480225
	C1265.018921,925.375916 1265.008789,971.271729 1264.762939,1017.602417
	C1264.519775,1018.037292 1264.116821,1017.965698 1264.116943,1017.965698
z"/>
<path fill="#A2BCED" opacity="1.000000" stroke="none"
	d="
M1264.053467,1018.433044
	C1264.116821,1017.965698 1264.519775,1018.037292 1264.719971,1018.076660
	C1264.859375,1042.546143 1264.798584,1066.976196 1264.522095,1091.759033
	C1264.191284,1079.832642 1264.027588,1067.553711 1263.974121,1055.274414
	C1263.921387,1043.150024 1263.980225,1031.025024 1264.053467,1018.433044
z"/>
<path fill="#8CAFE0" opacity="1.000000" stroke="none"
	d="
M975.195068,1541.374268
	C975.290222,1536.584351 975.652710,1532.075806 975.960083,1527.563232
	C976.094177,1525.595581 976.115234,1523.619995 976.402832,1521.299072
	C976.732056,1527.235229 976.889099,1533.520386 976.892273,1539.805542
	C976.892578,1540.421509 975.946655,1541.037964 975.195068,1541.374268
z"/>
<path fill="#E2FEFF" opacity="1.000000" stroke="none"
	d="
M1337.625488,839.327637
	C1337.924072,844.036499 1337.943359,849.046509 1337.886230,854.515869
	C1337.655151,849.859680 1337.500610,844.744324 1337.625488,839.327637
z"/>
<path fill="#66A6C1" opacity="1.000000" stroke="none"
	d="
M1057.445557,1542.083496
	C1058.455811,1538.900391 1060.692139,1537.212402 1064.720459,1538.040649
	C1062.662354,1539.384888 1060.228516,1540.709106 1057.445557,1542.083496
z"/>
<path fill="#66A6C1" opacity="1.000000" stroke="none"
	d="
M1493.348999,1323.960083
	C1495.200562,1322.690308 1497.401001,1321.380981 1500.010254,1320.119507
	C1498.178467,1321.418457 1495.938232,1322.669434 1493.348999,1323.960083
z"/>
<path fill="#66A6C1" opacity="1.000000" stroke="none"
	d="
M1501.340210,1319.944702
	C1503.202393,1318.677368 1505.415283,1317.376709 1508.038940,1316.125488
	C1506.196899,1317.420410 1503.943848,1318.665894 1501.340210,1319.944702
z"/>
<path fill="#66A6C1" opacity="1.000000" stroke="none"
	d="
M1067.587891,973.946594
	C1065.517700,975.248962 1063.086914,976.582275 1060.276855,977.917480
	C1062.340942,976.605408 1064.784058,975.291504 1067.587891,973.946594
z"/>
<path fill="#66A6C1" opacity="1.000000" stroke="none"
	d="
M1485.327881,1327.949097
	C1486.461060,1327.018921 1487.932495,1326.059448 1489.775635,1325.118530
	C1488.653564,1326.064575 1487.159790,1326.992065 1485.327881,1327.949097
z"/>
<path fill="#66A6C1" opacity="1.000000" stroke="none"
	d="
M1343.660767,836.110474
	C1342.916992,836.742554 1341.849121,837.381042 1340.415161,838.021729
	C1341.144897,837.388306 1342.240723,836.752625 1343.660767,836.110474
z"/>
<path fill="#66A6C1" opacity="1.000000" stroke="none"
	d="
M1481.317139,1329.933594
	C1481.893066,1329.336182 1482.798706,1328.716309 1484.062988,1328.133301
	C1483.496704,1328.750732 1482.571899,1329.330933 1481.317139,1329.933594
z"/>
<path fill="#66A6C1" opacity="1.000000" stroke="none"
	d="
M1062.674561,1299.083618
	C1062.160156,1299.688843 1061.328491,1300.299561 1060.165649,1300.871460
	C1060.675415,1300.251465 1061.516357,1299.670288 1062.674561,1299.083618
z"/>
<path fill="#66A6C1" opacity="1.000000" stroke="none"
	d="
M1509.290039,1315.981689
	C1509.541748,1315.499268 1510.088379,1315.000732 1510.812256,1314.723389
	C1510.521362,1315.284912 1510.053223,1315.625244 1509.290039,1315.981689
z"/>
<path fill="#8CAFE0" opacity="1.000000" stroke="none"
	d="
M1338.647827,1161.180176
	C1338.866211,1162.159912 1338.761108,1163.318481 1338.424438,1164.733521
	C1338.236694,1163.779663 1338.280640,1162.569336 1338.647827,1161.180176
z"/>
<path fill="#66A6C1" opacity="1.000000" stroke="none"
	d="
M1058.454346,1216.242798
	C1058.854248,1215.830688 1059.583618,1215.411987 1060.662231,1214.999512
	C1060.269043,1215.415894 1059.526489,1215.826050 1058.454346,1216.242798
z"/>
<path fill="#8CAFE0" opacity="1.000000" stroke="none"
	d="
M1338.377686,1400.176636
	C1339.055420,1399.906372 1339.726929,1399.956421 1340.735229,1400.041016
	C1340.171875,1400.215942 1339.271606,1400.356323 1338.377686,1400.176636
z"/>
<path fill="#66A6C1" opacity="1.000000" stroke="none"
	d="
M1511.542480,1073.628174
	C1511.164185,1074.038330 1510.463013,1074.521118 1509.404053,1075.006348
	C1509.770630,1074.572754 1510.495117,1074.136719 1511.542480,1073.628174
z"/>
<path fill="#66A6C1" opacity="1.000000" stroke="none"
	d="
M1514.379395,1313.156982
	C1514.778076,1312.760010 1515.504272,1312.368408 1516.564209,1311.968140
	C1516.167603,1312.360474 1515.437378,1312.761353 1514.379395,1313.156982
z"/>
<path fill="#66A6C1" opacity="1.000000" stroke="none"
	d="
M1059.589722,1300.816162
	C1059.404297,1301.165894 1058.901001,1301.539307 1058.054932,1301.884277
	C1058.232178,1301.517090 1058.752075,1301.178589 1059.589722,1300.816162
z"/>
<path fill="#66A6C1" opacity="1.000000" stroke="none"
	d="
M1490.406494,1325.182617
	C1490.620239,1324.827881 1491.168579,1324.465576 1492.076660,1324.141846
	C1491.871338,1324.511841 1491.306274,1324.843384 1490.406494,1325.182617
z"/>
<path fill="#66A6C1" opacity="1.000000" stroke="none"
	d="
M1069.633301,972.841492
	C1069.478027,973.175293 1069.022827,973.558472 1068.246094,973.942139
	C1068.394043,973.592102 1068.863770,973.241516 1069.633301,972.841492
z"/>
<path fill="#66A6C1" opacity="1.000000" stroke="none"
	d="
M1514.677490,750.949829
	C1514.506348,751.273376 1514.032227,751.616150 1513.245605,751.954224
	C1513.413574,751.622681 1513.893921,751.295837 1514.677490,750.949829
z"/>
<path fill="#66A6C1" opacity="1.000000" stroke="none"
	d="
M1512.665161,751.935425
	C1512.485107,752.265808 1511.994629,752.609375 1511.183472,752.944885
	C1511.360107,752.607483 1511.857422,752.278137 1512.665161,751.935425
z"/>
<path fill="#66A6C1" opacity="1.000000" stroke="none"
	d="
M1508.670166,753.934204
	C1508.488281,754.258728 1507.996460,754.606079 1507.181763,754.943481
	C1507.359375,754.608032 1507.859863,754.282471 1508.670166,753.934204
z"/>
<path fill="#A2BCED" opacity="1.000000" stroke="none"
	d="
M1262.921143,1198.427979
	C1262.995117,1198.723022 1262.771484,1198.897461 1262.262695,1198.999756
	C1262.155762,1198.698730 1262.371094,1198.491943 1262.921143,1198.427979
z"/>
<path fill="#66A6C1" opacity="1.000000" stroke="none"
	d="
M1513.229980,1313.886719
	C1513.192139,1313.680176 1513.412231,1313.434448 1513.879883,1313.135742
	C1513.914307,1313.337769 1513.701050,1313.592651 1513.229980,1313.886719
z"/>
<path fill="#66A6C1" opacity="1.000000" stroke="none"
	d="
M1064.707275,1298.051758
	C1064.726807,1298.279663 1064.461426,1298.544434 1063.906250,1298.842773
	C1063.885010,1298.613770 1064.153687,1298.351074 1064.707275,1298.051758
z"/>
<path fill="#66A6C1" opacity="1.000000" stroke="none"
	d="
M1517.309814,985.965576
	C1517.300659,985.754150 1517.574097,985.480896 1518.149170,985.177979
	C1518.164551,985.400085 1517.878418,985.651917 1517.309814,985.965576
z"/>
<path fill="#66A6C1" opacity="1.000000" stroke="none"
	d="
M1057.258179,1216.910767
	C1057.228516,1216.699707 1057.455322,1216.461182 1057.935303,1216.195068
	C1057.963867,1216.406006 1057.739136,1216.644531 1057.258179,1216.910767
z"/>
<path fill="#A2BCED" opacity="1.000000" stroke="none"
	d="
M1264.717529,1200.793213
	C1264.512085,1200.886108 1264.372070,1200.694946 1264.291748,1200.481201
	C1264.259033,1200.394165 1264.356445,1200.258179 1264.528320,1200.024414
	C1264.710083,1200.102905 1264.758423,1200.301392 1264.717529,1200.793213
z"/>
</svg>
